<?xml version="1.0" encoding="iso-8859-1"?>
<!-- Generator: Adobe Illustrator 16.0.0, SVG Export Plug-In . SVG Version: 6.00 Build 0)  -->
<!DOCTYPE svg PUBLIC "-//W3C//DTD SVG 1.1//EN" "http://www.w3.org/Graphics/SVG/1.1/DTD/svg11.dtd">
<svg version="1.1" id="Capa_1" xmlns="http://www.w3.org/2000/svg" xmlns:xlink="http://www.w3.org/1999/xlink" x="0px" y="0px"
	 width="124.116px" height="124.116px" viewBox="0 0 124.116 124.116" style="enable-background:new 0 0 124.116 124.116;"
	 xml:space="preserve">
<g>
	<g>
		<path d="M37.705,21.056c-0.098-0.352-0.214-0.806-0.353-1.363c-0.139-0.559-0.23-0.959-0.273-1.2
			c-0.039,0.224-0.118,0.593-0.233,1.107c-0.117,0.514-0.375,1.526-0.775,3.038h2.05L37.705,21.056z"/>
		<path d="M79.864,18.913H79.35v2.203h0.487c0.909,0,1.364-0.402,1.364-1.207C81.202,19.246,80.755,18.913,79.864,18.913z"/>
		<path d="M61.928,20.931c0.23-0.22,0.347-0.523,0.347-0.909c0-0.65-0.361-0.976-1.081-0.976h-0.673v2.215h0.475
			C61.386,21.261,61.698,21.152,61.928,20.931z"/>
		<path d="M70.561,18.927c-1.305,0-1.955,0.941-1.955,2.822c0,1.862,0.646,2.794,1.943,2.794c0.659,0,1.146-0.227,1.467-0.679
			c0.318-0.453,0.479-1.158,0.479-2.115c0-0.963-0.161-1.674-0.484-2.133C71.688,19.157,71.204,18.927,70.561,18.927z"/>
		<path d="M28.201,19.046h-0.673v2.215h0.475c0.391,0,0.702-0.109,0.933-0.33c0.23-0.22,0.346-0.523,0.346-0.909
			C29.281,19.371,28.92,19.046,28.201,19.046z"/>
		<path d="M102.112,0c-0.151,0-0.306,0.007-0.41,0.017L22.269,5.084c-2.549,0.232-4.545,2.282-4.545,4.665v0.471
			c-0.087,0.256-0.146,0.526-0.146,0.813v110.561c0,1.394,1.13,2.522,2.523,2.522H97.07c1.394,0,2.523-1.13,2.523-2.522v-3.199
			l2.399-0.174c2.549-0.23,4.545-2.281,4.545-4.664V4.173C106.539,1.833,104.596,0,102.112,0z M27.528,26.579h-2.604v-9.636h3.335
			c1.218,0,2.131,0.266,2.742,0.798c0.611,0.531,0.915,1.287,0.915,2.267c0,1.077-0.316,1.908-0.951,2.495
			c-0.636,0.587-1.537,0.88-2.706,0.88h-0.731V26.579z M47.538,37.839c1.157-0.449,1.724,0.188,1.305,1.357
			c-1.244,3.473-2.203,7.574-2.868,11.973c-0.185,1.225-1.305,2.346-2.532,2.531c-4.396,0.664-8.497,1.624-11.972,2.869
			c-1.167,0.417-1.805-0.148-1.357-1.305C33.211,47.288,39.564,40.936,47.538,37.839z M32.182,26.579l3.145-9.676h3.474l3.184,9.676
			h-2.848l-0.475-1.806h-3.131l-0.487,1.806H32.182z M46.384,23.532c-0.073-0.099-0.188-0.198-0.351-0.3
			c-0.16-0.102-0.587-0.308-1.281-0.619c-0.628-0.286-1.099-0.563-1.413-0.831c-0.314-0.268-0.547-0.575-0.698-0.923
			c-0.152-0.348-0.229-0.758-0.229-1.232c0-0.888,0.323-1.58,0.969-2.076s1.534-0.745,2.663-0.745c0.998,0,2.015,0.23,3.052,0.692
			l-0.797,2.01c-0.901-0.412-1.679-0.619-2.334-0.619c-0.338,0-0.584,0.06-0.738,0.178c-0.154,0.119-0.23,0.266-0.23,0.441
			c0,0.189,0.098,0.358,0.293,0.508c0.196,0.149,0.727,0.422,1.593,0.818c0.83,0.373,1.407,0.773,1.729,1.202
			c0.323,0.428,0.484,0.968,0.484,1.618c0,0.598-0.151,1.129-0.455,1.592c-0.303,0.464-0.74,0.823-1.311,1.081
			c-0.572,0.257-1.242,0.385-2.011,0.385c-0.643,0-1.18-0.045-1.616-0.135c-0.434-0.09-0.887-0.247-1.356-0.472v-2.32
			c0.497,0.256,1.013,0.455,1.549,0.598c0.536,0.143,1.028,0.214,1.477,0.214c0.387,0,0.67-0.067,0.851-0.201
			c0.18-0.134,0.27-0.306,0.27-0.518C46.493,23.746,46.456,23.63,46.384,23.532z M53.945,23.532c-0.072-0.099-0.188-0.198-0.349-0.3
			c-0.161-0.102-0.588-0.308-1.282-0.619c-0.629-0.286-1.1-0.563-1.414-0.831c-0.313-0.269-0.547-0.575-0.698-0.923
			c-0.151-0.348-0.229-0.758-0.229-1.232c0-0.888,0.324-1.58,0.971-2.076c0.646-0.496,1.532-0.745,2.662-0.745
			c0.997,0,2.015,0.23,3.051,0.692l-0.797,2.01c-0.9-0.412-1.678-0.619-2.332-0.619c-0.34,0-0.586,0.06-0.738,0.178
			c-0.154,0.119-0.232,0.266-0.232,0.441c0,0.189,0.099,0.358,0.294,0.508s0.727,0.422,1.592,0.818
			c0.83,0.373,1.407,0.773,1.729,1.202c0.323,0.428,0.484,0.968,0.484,1.618c0,0.598-0.151,1.129-0.454,1.592
			c-0.304,0.464-0.741,0.823-1.312,1.081c-0.571,0.257-1.24,0.385-2.011,0.385c-0.641,0-1.179-0.045-1.614-0.135
			s-0.887-0.247-1.357-0.472v-2.32c0.496,0.256,1.013,0.455,1.549,0.598c0.535,0.143,1.027,0.214,1.476,0.214
			c0.388,0,0.671-0.067,0.851-0.201c0.18-0.134,0.271-0.306,0.271-0.518C54.055,23.746,54.018,23.63,53.945,23.532z M52.907,38.156
			c0.495-1.135,1.974-2.18,3.209-2.28c0.816-0.065,1.641-0.099,2.474-0.099c0.83,0,1.656,0.033,2.471,0.099
			c1.237,0.101,2.716,1.144,3.21,2.28c1.399,3.217,2.619,7.535,3.459,12.644c0.199,1.224-0.668,2.129-1.904,2.043
			c-2.4-0.165-4.826-0.25-7.235-0.25c-2.409,0-4.837,0.085-7.238,0.25c-1.237,0.086-2.104-0.819-1.902-2.043
			C50.288,45.69,51.505,41.372,52.907,38.156z M57.917,26.579v-9.636h3.336c1.217,0,2.13,0.266,2.741,0.798
			c0.611,0.531,0.916,1.287,0.916,2.267c0,1.077-0.316,1.908-0.951,2.495c-0.636,0.587-1.538,0.88-2.706,0.88h-0.732v3.196H57.917z
			 M85.004,26.579h-2.953l-2.043-3.506H79.35v3.506h-2.604v-9.636h3.157c2.619,0,3.928,0.948,3.928,2.847
			c0,1.117-0.544,1.98-1.634,2.592L85.004,26.579z M87.059,55.264c0.451,1.155-0.188,1.723-1.355,1.305
			c-3.475-1.244-7.575-2.204-11.973-2.868c-1.227-0.186-2.346-1.307-2.531-2.531c-0.665-4.398-1.624-8.5-2.87-11.973
			c-0.416-1.168,0.149-1.807,1.306-1.357C77.611,40.936,83.962,47.288,87.059,55.264z M74.042,25.447
			c-0.796,0.844-1.961,1.265-3.493,1.265c-1.512,0-2.672-0.424-3.478-1.271c-0.806-0.849-1.209-2.083-1.209-3.704
			c0-1.604,0.399-2.829,1.202-3.675c0.803-0.847,1.969-1.269,3.496-1.269c1.533,0,2.695,0.42,3.486,1.259s1.188,2.071,1.188,3.698
			C75.234,23.371,74.837,24.603,74.042,25.447z M50.948,56.244c2.441-0.184,4.994-0.283,7.639-0.283c2.647,0,5.199,0.1,7.64,0.283
			c1.236,0.093,2.338,1.193,2.43,2.428c0.186,2.443,0.283,4.994,0.283,7.64c0,2.647-0.098,5.197-0.283,7.64
			c-0.092,1.235-1.192,2.337-2.43,2.431c-2.439,0.184-4.994,0.282-7.64,0.282s-5.198-0.101-7.639-0.282
			c-1.236-0.093-2.336-1.193-2.43-2.431c-0.184-2.44-0.283-4.994-0.283-7.64s0.1-5.198,0.283-7.64
			C48.611,57.437,49.711,56.336,50.948,56.244z M67.727,81.824c-0.84,5.109-2.058,9.426-3.459,12.643
			c-0.494,1.137-1.974,2.182-3.21,2.281c-0.814,0.064-1.64,0.1-2.471,0.1c-0.833,0-1.657-0.033-2.473-0.1
			c-1.236-0.1-2.715-1.143-3.21-2.281c-1.399-3.217-2.618-7.533-3.458-12.643c-0.201-1.223,0.667-2.129,1.903-2.043
			c2.402,0.165,4.827,0.251,7.235,0.251c2.41,0,4.838-0.086,7.238-0.251C67.059,79.695,67.928,80.602,67.727,81.824z M28.151,68.783
			c-0.064-0.814-0.099-1.641-0.099-2.473c0-0.83,0.034-1.656,0.099-2.471c0.1-1.238,1.144-2.718,2.281-3.212
			c3.216-1.4,7.535-2.618,12.643-3.458c1.224-0.2,2.129,0.667,2.043,1.903c-0.164,2.401-0.25,4.829-0.25,7.235
			c0,2.408,0.086,4.836,0.25,7.236c0.086,1.237-0.819,2.105-2.043,1.904c-5.109-0.84-9.427-2.057-12.643-3.457
			C29.295,71.498,28.25,70.02,28.151,68.783z M31.471,76.055c3.475,1.244,7.575,2.203,11.973,2.869
			c1.228,0.184,2.347,1.305,2.531,2.531c0.664,4.398,1.624,8.499,2.868,11.973c0.418,1.168-0.147,1.805-1.305,1.356
			c-7.975-3.097-14.327-9.448-17.425-17.425C29.665,76.203,30.304,75.637,31.471,76.055z M81.791,116.336l-46.41,0.008v-6.004h46.41
			V116.336z M87.061,77.359c-3.097,7.977-9.448,14.328-17.426,17.426c-1.156,0.449-1.723-0.189-1.305-1.357
			c1.244-3.473,2.203-7.576,2.868-11.972c0.187-1.228,1.306-2.349,2.532-2.532c4.397-0.664,8.498-1.623,11.973-2.867
			C86.871,75.639,87.51,76.203,87.061,77.359z M89.023,68.785c-0.101,1.234-1.144,2.717-2.281,3.212
			c-3.217,1.399-7.535,2.618-12.643,3.458c-1.225,0.201-2.129-0.666-2.043-1.904c0.164-2.4,0.25-4.83,0.25-7.236
			c0-2.409-0.086-4.837-0.25-7.237c-0.086-1.237,0.818-2.105,2.043-1.904c5.106,0.84,9.426,2.057,12.643,3.458
			c1.136,0.495,2.182,1.974,2.281,3.21c0.063,0.814,0.099,1.641,0.099,2.473S89.09,67.969,89.023,68.785z M92.249,19.073h-2.347
			v7.507h-2.604v-7.507h-2.354v-2.129h7.304V19.073z M102.754,113.555c0,0.369-0.482,0.84-1.068,0.895l-2.092,0.15V11.033
			c0-1.395-1.13-2.523-2.522-2.523H28.039l73.902-4.713l0.17-0.011c0.312,0,0.643,0.136,0.643,0.388V113.555z"/>
	</g>
</g>
<g>
</g>
<g>
</g>
<g>
</g>
<g>
</g>
<g>
</g>
<g>
</g>
<g>
</g>
<g>
</g>
<g>
</g>
<g>
</g>
<g>
</g>
<g>
</g>
<g>
</g>
<g>
</g>
<g>
</g>
</svg>
