<?xml version="1.0" encoding="iso-8859-1"?>
<!-- Generator: Adobe Illustrator 19.0.0, SVG Export Plug-In . SVG Version: 6.00 Build 0)  -->
<svg version="1.1" id="Capa_1" xmlns="http://www.w3.org/2000/svg" xmlns:xlink="http://www.w3.org/1999/xlink" x="0px" y="0px"
	 viewBox="0 0 297 297" style="enable-background:new 0 0 297 297;" xml:space="preserve">
<g>
	<path d="M139.167,24.75c0-13.669-11.081-24.75-24.75-24.75h-0.5c-13.669,0-24.75,11.081-24.75,24.75v247.5
		c0,13.669,11.081,24.75,24.75,24.75h0.5c13.669,0,24.75-11.081,24.75-24.75V24.75z M105.167,124v-8.75
		c0-4.825,4.258-8.25,9.083-8.25h0.5c4.825,0,8.417,3.425,8.417,8.25V124H105.167z M123.167,173v7.75c0,4.825-3.592,9.25-8.417,9.25
		h-0.5c-4.825,0-9.083-4.425-9.083-9.25V173H123.167z"/>
	<path d="M69.5,255h-4.333V126.927c3-2.197,4-5.377,4-8.926V90c0-6.627-5.373-12-12-12s-12,5.373-12,12v28.001
		c0,3.549,2,6.729,4,8.926V255H45.5c-4.418,0-8,3.582-8,8s3.582,8,8,8h3.667v18c0,4.418,3.582,8,8,8s8-3.582,8-8v-18H69.5
		c4.418,0,8-3.582,8-8S73.918,255,69.5,255z"/>
	<path d="M182.666,0h-0.084h-0.5c-13.669,0-24.915,11.081-24.915,24.75v247.5c0,13.669,11.246,24.75,24.915,24.75h0.5
		c13.669,0,24.585-11.081,24.585-24.75V24.75C207.167,11.081,196.335,0,182.666,0z M191.167,124h-18v-8.75
		c0-4.825,4.09-8.25,8.915-8.25h0.5c4.825,0,8.585,3.425,8.585,8.25V124z M191.167,173v7.75c0,4.825-3.76,9.25-8.585,9.25h-0.5
		c-4.825,0-8.915-4.425-8.915-9.25V173H191.167z"/>
	<path d="M251.5,255h-4.333V126.774c3-2.19,4-5.306,4-8.773V90c0-6.627-5.373-12-12-12c-6.627,0-12,5.373-12,12v28.001
		c0,3.631,2,6.878,4,9.079V255H227.5c-4.418,0-8,3.582-8,8s3.582,8,8,8h3.667v18c0,4.418,3.582,8,8,8c4.418,0,8-3.582,8-8v-18h4.333
		c4.418,0,8-3.582,8-8S255.918,255,251.5,255z"/>
</g>
<g>
</g>
<g>
</g>
<g>
</g>
<g>
</g>
<g>
</g>
<g>
</g>
<g>
</g>
<g>
</g>
<g>
</g>
<g>
</g>
<g>
</g>
<g>
</g>
<g>
</g>
<g>
</g>
<g>
</g>
</svg>
